<svg version="1.0" xmlns="http://www.w3.org/2000/svg"
 width="169.000000pt" height="160.000000pt" viewBox="0 0 169.000000 160.000000"
 preserveAspectRatio="xMidYMid meet">

<g transform="translate(0.000000,160.000000) scale(0.100000,-0.100000)"
fill="#000000" stroke="none">
<path d="M1085 420 c3 -5 8 -10 11 -10 2 0 4 5 4 10 0 6 -5 10 -11 10 -5 0 -7
-4 -4 -10z"/>
<path d="M1106 372 c-2 -4 -1 -14 4 -22 7 -11 9 -9 7 8 -1 24 -3 26 -11 14z"/>
<path d="M1148 355 c2 -13 11 -26 19 -29 11 -5 13 -2 9 10 -3 8 -6 19 -6 24 0
4 -6 10 -13 13 -10 4 -13 -2 -9 -18z"/>
<path d="M1208 343 c7 -3 16 -2 19 1 4 3 -2 6 -13 5 -11 0 -14 -3 -6 -6z"/>
</g>
</svg>
